<svg width="417" height="35" viewBox="0 0 417 35" fill="none" xmlns="http://www.w3.org/2000/svg">
<path d="M11.48 22.816H35.912V34H0.296V0.303999H11.48V22.816ZM57.4003 34C52.3763 34 48.1843 33.504 44.8243 32.512C41.4643 31.52 39.1443 29.808 37.8643 27.376C36.9363 25.552 36.3123 23.296 35.9923 20.608C35.6723 17.888 35.5123 13.808 35.5123 8.368L35.5603 0.303999H47.3683V15.376C47.3683 16.336 47.4163 17.2 47.5123 17.968C47.6083 18.704 47.8483 19.52 48.2323 20.416C48.6483 21.312 49.2083 22.064 49.9123 22.672C50.6163 23.248 51.6083 23.744 52.8883 24.16C54.1683 24.544 55.6723 24.736 57.4003 24.736C59.1603 24.736 60.6643 24.544 61.9123 24.16C63.1923 23.744 64.1523 23.248 64.7923 22.672C65.4643 22.096 65.9923 21.36 66.3763 20.464C66.7603 19.536 66.9843 18.704 67.0483 17.968C67.1443 17.232 67.1923 16.368 67.1923 15.376V0.303999H79.0003V8.368C79.0323 13.808 78.8883 17.888 78.5683 20.608C78.2483 23.296 77.6243 25.552 76.6963 27.376C76.0243 28.656 75.0643 29.744 73.8163 30.64C72.6003 31.504 71.1283 32.176 69.4003 32.656C67.6723 33.136 65.8483 33.488 63.9283 33.712C62.0083 33.904 59.8323 34 57.4003 34ZM102.901 0.0159998C107.125 0.0159998 110.757 0.383999 113.797 1.12C116.837 1.824 119.237 2.864 120.997 4.24C122.757 5.584 124.037 7.152 124.837 8.944C125.637 10.736 126.037 12.816 126.037 15.184H114.565C114.533 15.024 114.469 14.816 114.373 14.56C114.309 14.304 114.037 13.872 113.557 13.264C113.077 12.624 112.453 12.064 111.685 11.584C110.917 11.072 109.749 10.624 108.181 10.24C106.645 9.824 104.853 9.616 102.805 9.616C100.981 9.616 99.3813 9.76 98.0053 10.048C96.6613 10.336 95.5893 10.704 94.7893 11.152C94.0213 11.6 93.3973 12.176 92.9173 12.88C92.4693 13.552 92.1653 14.224 92.0053 14.896C91.8453 15.536 91.7653 16.256 91.7653 17.056C91.7653 18.176 91.9413 19.168 92.2933 20.032C92.6453 20.896 93.2213 21.696 94.0213 22.432C94.8213 23.136 95.9573 23.68 97.4293 24.064C98.9013 24.448 100.693 24.64 102.805 24.64C104.981 24.64 106.869 24.48 108.469 24.16C110.069 23.84 111.237 23.456 111.973 23.008C112.709 22.56 113.285 22.112 113.701 21.664C114.149 21.184 114.405 20.784 114.469 20.464L114.565 19.984H126.037C126.037 21.616 125.829 23.104 125.413 24.448C124.997 25.76 124.261 27.04 123.205 28.288C122.149 29.536 120.773 30.576 119.077 31.408C117.413 32.24 115.237 32.912 112.549 33.424C109.861 33.904 106.741 34.144 103.189 34.144C98.8373 34.144 95.1893 33.824 92.2453 33.184C89.3013 32.512 86.9333 31.472 85.1413 30.064C83.3813 28.624 82.1173 26.896 81.3493 24.88C80.5813 22.864 80.1973 20.384 80.1973 17.44C80.1973 14.272 80.6773 11.568 81.6373 9.328C82.6293 7.056 84.1013 5.248 86.0533 3.904C88.0053 2.528 90.3573 1.536 93.1093 0.927999C95.8613 0.32 99.1253 0.0159998 102.901 0.0159998ZM167.499 0.303999L149.115 17.296L167.499 34H152.331L141.963 23.92L138.363 27.232V34H127.179V0.303999H138.363V13.648L152.331 0.303999H167.499ZM196.58 0.303999H209.78L193.46 24.112V34H182.324V24.112L166.052 0.303999H179.252L187.892 11.92L196.58 0.303999ZM255.496 34H232.312V0.399998H255.352C257.528 0.399998 259.464 0.527998 261.16 0.783998C262.856 1.008 264.568 1.488 266.296 2.224C268.024 2.928 269.464 3.888 270.616 5.104C271.768 6.288 272.696 7.904 273.4 9.952C274.136 12 274.504 14.416 274.504 17.2C274.504 19.696 274.12 21.936 273.352 23.92C272.584 25.904 271.576 27.52 270.328 28.768C269.08 29.984 267.608 31.008 265.912 31.84C264.216 32.64 262.504 33.2 260.776 33.52C259.08 33.84 257.32 34 255.496 34ZM254.728 24.832C256.488 24.832 257.992 24.496 259.24 23.824C260.488 23.12 261.4 22.208 261.976 21.088C262.552 19.968 262.84 18.688 262.84 17.248C262.84 14.944 262.184 13.104 260.872 11.728C259.592 10.32 257.544 9.616 254.728 9.616H243.496V24.832H254.728ZM275.685 0.303999H300.453C301.093 0.303999 301.701 0.319999 302.277 0.351998C302.853 0.383998 303.653 0.495998 304.677 0.688C305.733 0.848 306.677 1.088 307.509 1.408C308.373 1.696 309.285 2.16 310.245 2.8C311.205 3.408 312.005 4.144 312.645 5.008C313.317 5.84 313.861 6.912 314.277 8.224C314.725 9.536 314.949 11.024 314.949 12.688C314.949 18 312.885 21.792 308.757 24.064L315.669 34L302.757 33.952L296.997 26.032H286.869V34H275.685V0.303999ZM299.397 16.192C302.181 16.192 303.573 15.136 303.573 13.024C303.573 11.104 302.117 10.144 299.205 10.144H286.869V16.192H299.397ZM345.744 0.399998L360.864 34H347.904L345.36 28.336H328.704L326.16 34H313.296L328.368 0.399998H345.744ZM332.688 18.64H341.376L337.008 9.808L332.688 18.64ZM416.705 0.303999L402.593 33.856L402.641 34H391.841L391.889 33.856L383.921 16.048L376.049 34H365.249L350.945 0.303999H362.753L370.625 19.36L378.497 0.303999H389.201L397.169 19.168L404.945 0.303999H416.705Z" fill="white"/>
<path d="M11.48 22.816H9.48V24.816H11.48V22.816ZM35.912 22.816H37.912V20.816H35.912V22.816ZM35.912 34V36H37.912V34H35.912ZM0.296 34H-1.704V36H0.296V34ZM0.296 0.303999V-1.696H-1.704V0.303999H0.296ZM11.48 0.303999H13.48V-1.696H11.48V0.303999ZM11.48 24.816H35.912V20.816H11.48V24.816ZM33.912 22.816V34H37.912V22.816H33.912ZM35.912 32H0.296V36H35.912V32ZM2.296 34V0.303999H-1.704V34H2.296ZM0.296 2.304H11.48V-1.696H0.296V2.304ZM9.48 0.303999V22.816H13.48V0.303999H9.48ZM44.8243 32.512L45.3906 30.5939L45.3906 30.5939L44.8243 32.512ZM37.8643 27.376L36.0817 28.2829L36.088 28.2952L36.0944 28.3075L37.8643 27.376ZM35.9923 20.608L34.0059 20.8417L34.0063 20.8444L35.9923 20.608ZM35.5123 8.368L33.5123 8.35609V8.368H35.5123ZM35.5603 0.303999V-1.696H33.5721L33.5603 0.292094L35.5603 0.303999ZM47.3683 0.303999H49.3683V-1.696H47.3683V0.303999ZM47.5123 17.968L45.5277 18.2161L45.5291 18.2267L47.5123 17.968ZM48.2323 20.416L46.394 21.2038L46.4057 21.2312L46.4182 21.2582L48.2323 20.416ZM49.9123 22.672L48.605 24.1856L48.6252 24.2031L48.6458 24.2199L49.9123 22.672ZM52.8883 24.16L52.2701 26.0621L52.2917 26.0691L52.3136 26.0757L52.8883 24.16ZM61.9123 24.16L62.5004 26.0716L62.5155 26.0669L62.5304 26.0621L61.9123 24.16ZM64.7923 22.672L63.4907 21.1535L63.4723 21.1692L63.4543 21.1854L64.7923 22.672ZM66.3763 20.464L68.2145 21.2518L68.2195 21.2403L68.2243 21.2287L66.3763 20.464ZM67.0483 17.968L65.0651 17.7093L65.0595 17.7519L65.0558 17.7947L67.0483 17.968ZM67.1923 0.303999V-1.696H65.1923V0.303999H67.1923ZM79.0003 0.303999H81.0003V-1.696H79.0003V0.303999ZM79.0003 8.368L77.0002 8.368L77.0003 8.37976L79.0003 8.368ZM78.5683 20.608L80.5542 20.8444L80.5546 20.8417L78.5683 20.608ZM76.6963 27.376L78.467 28.3057L78.473 28.2943L78.4788 28.2829L76.6963 27.376ZM73.8163 30.64L74.9747 32.2704L74.9827 32.2646L73.8163 30.64ZM63.9283 33.712L64.1273 35.7021L64.1437 35.7004L64.16 35.6985L63.9283 33.712ZM57.4003 32C52.4924 32 48.506 31.5137 45.3906 30.5939L44.2579 34.4301C47.8625 35.4943 52.2601 36 57.4003 36V32ZM45.3906 30.5939C42.3985 29.7105 40.598 28.276 39.6341 26.4445L36.0944 28.3075C37.6905 31.34 40.53 33.3295 44.2579 34.4301L45.3906 30.5939ZM39.6468 26.4691C38.8538 24.9104 38.2789 22.8969 37.9782 20.3716L34.0063 20.8444C34.3456 23.6951 35.0187 26.1936 36.0817 28.2829L39.6468 26.4691ZM37.9786 20.3743C37.6727 17.7748 37.5123 13.7902 37.5123 8.368H33.5123C33.5123 13.8258 33.6718 18.0012 34.006 20.8417L37.9786 20.3743ZM37.5122 8.3799L37.5602 0.315904L33.5603 0.292094L33.5123 8.35609L37.5122 8.3799ZM35.5603 2.304H47.3683V-1.696H35.5603V2.304ZM45.3683 0.303999V15.376H49.3683V0.303999H45.3683ZM45.3683 15.376C45.3683 16.4001 45.4193 17.349 45.5277 18.2161L49.4968 17.7199C49.4132 17.051 49.3683 16.2719 49.3683 15.376H45.3683ZM45.5291 18.2267C45.6549 19.1916 45.9588 20.1885 46.394 21.2038L50.0705 19.6282C49.7377 18.8515 49.5616 18.2164 49.4955 17.7093L45.5291 18.2267ZM46.4182 21.2582C46.9461 22.3952 47.6732 23.3809 48.605 24.1856L51.2195 21.1584C50.7433 20.7471 50.3504 20.2288 50.0463 19.5738L46.4182 21.2582ZM48.6458 24.2199C49.6109 25.0096 50.8567 25.6027 52.2701 26.0621L53.5064 22.2579C52.3598 21.8853 51.6216 21.4864 51.1787 21.1241L48.6458 24.2199ZM52.3136 26.0757C53.8253 26.5292 55.5314 26.736 57.4003 26.736V22.736C55.8131 22.736 54.5112 22.5588 53.4629 22.2443L52.3136 26.0757ZM57.4003 26.736C59.2951 26.736 61.0087 26.5305 62.5004 26.0716L61.3241 22.2484C60.3198 22.5575 59.0254 22.736 57.4003 22.736V26.736ZM62.5304 26.0621C63.9427 25.6031 65.1979 24.9976 66.1302 24.1586L63.4543 21.1854C63.1066 21.4984 62.4418 21.8849 61.2941 22.2579L62.5304 26.0621ZM66.0938 24.1905C67.0211 23.3957 67.7223 22.4003 68.2145 21.2518L64.538 19.6762C64.2622 20.3197 63.9074 20.7963 63.4907 21.1535L66.0938 24.1905ZM68.2243 21.2287C68.6603 20.175 68.954 19.1389 69.0407 18.1413L65.0558 17.7947C65.0145 18.2691 64.8602 18.897 64.5282 19.6993L68.2243 21.2287ZM69.0315 18.2267C69.1416 17.3819 69.1923 16.4277 69.1923 15.376H65.1923C65.1923 16.3083 65.1469 17.0821 65.0651 17.7093L69.0315 18.2267ZM69.1923 15.376V0.303999H65.1923V15.376H69.1923ZM67.1923 2.304H79.0003V-1.696H67.1923V2.304ZM77.0003 0.303999V8.368H81.0003V0.303999H77.0003ZM77.0003 8.37976C77.0322 13.801 76.8871 17.7808 76.582 20.3743L80.5546 20.8417C80.8894 17.9952 81.0323 13.815 81.0002 8.35623L77.0003 8.37976ZM76.5823 20.3716C76.2816 22.8969 75.7067 24.9104 74.9137 26.4691L78.4788 28.2829C79.5418 26.1936 80.2149 23.6951 80.5542 20.8444L76.5823 20.3716ZM74.9255 26.4463C74.4071 27.4336 73.6613 28.2892 72.6498 29.0154L74.9827 32.2646C76.4672 31.1988 77.6414 29.8784 78.467 28.3057L74.9255 26.4463ZM72.6578 29.0096C71.6647 29.7153 70.4135 30.2988 68.865 30.729L69.9355 34.583C71.843 34.0532 73.5358 33.2927 74.9747 32.2704L72.6578 29.0096ZM68.865 30.729C67.2438 31.1793 65.5218 31.5125 63.6965 31.7255L64.16 35.6985C66.1747 35.4635 68.1007 35.0927 69.9355 34.583L68.865 30.729ZM63.7292 31.7219C61.8898 31.9059 59.782 32 57.4003 32V36C59.8825 36 62.1267 35.9021 64.1273 35.7021L63.7292 31.7219ZM113.797 1.12L113.327 3.06384L113.336 3.06618L113.346 3.06843L113.797 1.12ZM120.997 4.24L119.765 5.81561L119.774 5.82263L119.783 5.82954L120.997 4.24ZM124.837 8.944L123.011 9.7593L123.011 9.7593L124.837 8.944ZM126.037 15.184V17.184H128.037V15.184H126.037ZM114.565 15.184L112.604 15.5762L112.926 17.184H114.565V15.184ZM114.373 14.56L112.433 15.0451L112.461 15.1556L112.501 15.2622L114.373 14.56ZM113.557 13.264L111.957 14.464L111.972 14.4838L111.987 14.5033L113.557 13.264ZM111.685 11.584L110.576 13.2481L110.6 13.2644L110.625 13.28L111.685 11.584ZM108.181 10.24L107.658 12.1705L107.682 12.1768L107.706 12.1826L108.181 10.24ZM98.0053 10.048L97.5955 8.0904L97.5862 8.09239L98.0053 10.048ZM94.7893 11.152L93.812 9.40699L93.7967 9.41558L93.7815 9.42444L94.7893 11.152ZM92.9173 12.88L91.2648 11.7533L91.2589 11.7619L91.2532 11.7706L92.9173 12.88ZM92.0053 14.896L93.9455 15.3811L93.9483 15.3702L93.9509 15.3592L92.0053 14.896ZM94.0213 22.432L92.6671 23.9039L92.6834 23.9188L92.7 23.9334L94.0213 22.432ZM97.4293 24.064L97.9341 22.1288L97.9341 22.1288L97.4293 24.064ZM108.469 24.16L108.077 22.1988L108.077 22.1988L108.469 24.16ZM111.973 23.008L110.933 21.2996L110.933 21.2996L111.973 23.008ZM113.701 21.664L112.239 20.2994L112.236 20.3031L113.701 21.664ZM114.469 20.464L116.43 20.8562L116.43 20.8562L114.469 20.464ZM114.565 19.984V17.984H112.926L112.604 19.5918L114.565 19.984ZM126.037 19.984H128.037V17.984H126.037V19.984ZM125.413 24.448L127.32 25.0525L127.324 25.0394L125.413 24.448ZM123.205 28.288L124.732 29.5799L124.732 29.5799L123.205 28.288ZM119.077 31.408L118.196 29.6124L118.19 29.6158L118.183 29.6191L119.077 31.408ZM112.549 33.424L112.901 35.3929L112.912 35.3908L112.923 35.3887L112.549 33.424ZM92.2453 33.184L91.8002 35.1338L91.8103 35.1362L91.8204 35.1384L92.2453 33.184ZM85.1413 30.064L83.8748 31.6119L83.8901 31.6244L83.9056 31.6366L85.1413 30.064ZM81.3493 24.88L83.2182 24.168L83.2182 24.168L81.3493 24.88ZM81.6373 9.328L79.8043 8.5277L79.799 8.54016L81.6373 9.328ZM86.0533 3.904L87.1875 5.55129L87.1965 5.54504L87.2056 5.53868L86.0533 3.904ZM93.1093 0.927999L92.6778 -1.02491L92.6778 -1.02491L93.1093 0.927999ZM102.901 2.016C107.018 2.016 110.484 2.37555 113.327 3.06384L114.268 -0.823845C111.031 -1.60755 107.232 -1.984 102.901 -1.984V2.016ZM113.346 3.06843C116.207 3.73105 118.308 4.67589 119.765 5.81561L122.229 2.66439C120.167 1.0521 117.467 -0.0830521 114.248 -0.828439L113.346 3.06843ZM119.783 5.82954C121.312 6.99712 122.364 8.30994 123.011 9.7593L126.664 8.1287C125.711 5.99406 124.202 4.17088 122.211 2.65046L119.783 5.82954ZM123.011 9.7593C123.675 11.2474 124.037 13.04 124.037 15.184H128.037C128.037 12.592 127.599 10.2246 126.664 8.1287L123.011 9.7593ZM126.037 13.184H114.565V17.184H126.037V13.184ZM116.526 14.7918C116.464 14.4794 116.358 14.1569 116.246 13.8577L112.501 15.2622C112.538 15.3617 112.564 15.4388 112.582 15.4962C112.6 15.5555 112.605 15.5799 112.604 15.5762L116.526 14.7918ZM116.314 14.0749C116.202 13.6295 115.978 13.2389 115.814 12.9784C115.626 12.6802 115.391 12.3591 115.127 12.0247L111.987 14.5033C112.204 14.7769 112.345 14.9758 112.429 15.1096C112.47 15.1755 112.487 15.2083 112.489 15.2127C112.495 15.224 112.462 15.1622 112.433 15.0451L116.314 14.0749ZM115.157 12.064C114.511 11.2025 113.695 10.4815 112.745 9.888L110.625 13.28C111.212 13.6465 111.643 14.0455 111.957 14.464L115.157 12.064ZM112.795 9.9199C111.74 9.21691 110.308 8.70172 108.657 8.2974L107.706 12.1826C109.191 12.5463 110.094 12.9271 110.576 13.2481L112.795 9.9199ZM108.704 8.30955C106.957 7.83638 104.982 7.616 102.805 7.616V11.616C104.724 11.616 106.333 11.8116 107.658 12.1705L108.704 8.30955ZM102.805 7.616C100.882 7.616 99.1392 7.76733 97.5955 8.09042L98.415 12.0056C99.6233 11.7527 101.081 11.616 102.805 11.616V7.616ZM97.5862 8.09239C96.134 8.40358 94.8503 8.82557 93.812 9.40699L95.7665 12.897C96.3282 12.5824 97.1885 12.2684 98.4243 12.0036L97.5862 8.09239ZM93.7815 9.42444C92.7681 10.0156 91.9197 10.7928 91.2648 11.7533L94.5697 14.0067C94.8748 13.5592 95.2744 13.1844 95.797 12.8796L93.7815 9.42444ZM91.2532 11.7706C90.6956 12.6069 90.2829 13.4951 90.0596 14.4328L93.9509 15.3592C94.0476 14.9529 94.2429 14.4971 94.5814 13.9894L91.2532 11.7706ZM90.065 14.4109C89.858 15.2389 89.7653 16.1258 89.7653 17.056H93.7653C93.7653 16.3862 93.8325 15.8331 93.9455 15.3811L90.065 14.4109ZM89.7653 17.056C89.7653 18.384 89.974 19.6401 90.4411 20.7866L94.1454 19.2774C93.9085 18.6959 93.7653 17.968 93.7653 17.056H89.7653ZM90.4411 20.7866C90.9212 21.965 91.6859 23.0012 92.6671 23.9039L95.3754 20.9601C94.7566 20.3908 94.3694 19.827 94.1454 19.2774L90.4411 20.7866ZM92.7 23.9334C93.813 24.9128 95.2708 25.5678 96.9244 25.9992L97.9341 22.1288C96.6438 21.7922 95.8295 21.3592 95.3425 20.9306L92.7 23.9334ZM96.9244 25.9992C98.6111 26.4392 100.584 26.64 102.805 26.64V22.64C100.803 22.64 99.1914 22.4568 97.9341 22.1288L96.9244 25.9992ZM102.805 26.64C105.072 26.64 107.098 26.4739 108.861 26.1212L108.077 22.1988C106.641 22.4861 104.89 22.64 102.805 22.64V26.64ZM108.861 26.1212C110.524 25.7887 111.971 25.3506 113.013 24.7164L110.933 21.2996C110.503 21.5614 109.615 21.8913 108.077 22.1988L108.861 26.1212ZM113.013 24.7164C113.848 24.2085 114.586 23.6503 115.167 23.0249L112.236 20.3031C111.984 20.5737 111.571 20.9115 110.933 21.2996L113.013 24.7164ZM115.163 23.0286C115.655 22.5019 116.251 21.7554 116.43 20.8562L112.508 20.0718C112.526 19.9812 112.55 19.9247 112.558 19.9067C112.566 19.8882 112.565 19.8941 112.545 19.9259C112.501 19.9935 112.409 20.117 112.239 20.2994L115.163 23.0286ZM116.43 20.8562L116.526 20.3762L112.604 19.5918L112.508 20.0718L116.43 20.8562ZM114.565 21.984H126.037V17.984H114.565V21.984ZM124.037 19.984C124.037 21.4468 123.851 22.7319 123.503 23.8566L127.324 25.0394C127.808 23.4761 128.037 21.7852 128.037 19.984H124.037ZM123.507 23.8435C123.184 24.8609 122.595 25.9127 121.678 26.9961L124.732 29.5799C125.927 28.1673 126.81 26.6591 127.32 25.0525L123.507 23.8435ZM121.678 26.9961C120.826 28.0032 119.683 28.8832 118.196 29.6124L119.958 33.2036C121.864 32.2688 123.472 31.0688 124.732 29.5799L121.678 26.9961ZM118.183 29.6191C116.741 30.3401 114.759 30.9672 112.175 31.4593L112.923 35.3887C115.716 34.8568 118.086 34.1399 119.972 33.1969L118.183 29.6191ZM112.198 31.4551C109.654 31.9093 106.656 32.144 103.189 32.144V36.144C106.826 36.144 110.068 35.8987 112.901 35.3929L112.198 31.4551ZM103.189 32.144C98.9229 32.144 95.428 31.8292 92.6701 31.2296L91.8204 35.1384C94.9505 35.8188 98.7516 36.144 103.189 36.144V32.144ZM92.6903 31.2342C89.9451 30.6075 87.8738 29.6675 86.3769 28.4914L83.9056 31.6366C85.9927 33.2765 88.6574 34.4165 91.8002 35.1338L92.6903 31.2342ZM86.4077 28.5161C84.9029 27.2849 83.855 25.8397 83.2182 24.168L79.4803 25.592C80.3795 27.9523 81.8596 29.9631 83.8748 31.6119L86.4077 28.5161ZM83.2182 24.168C82.5621 22.4457 82.1973 20.2235 82.1973 17.44H78.1973C78.1973 20.5445 78.6004 23.2823 79.4803 25.592L83.2182 24.168ZM82.1973 17.44C82.1973 14.4653 82.6491 12.0443 83.4755 10.1158L79.799 8.54016C78.7054 11.0917 78.1973 14.0787 78.1973 17.44H82.1973ZM83.4702 10.1283C84.3201 8.18176 85.5573 6.67367 87.1875 5.55129L84.919 2.2567C82.6452 3.82232 80.9385 5.93024 79.8043 8.52772L83.4702 10.1283ZM87.2056 5.53868C88.9054 4.34044 91.0018 3.44182 93.5407 2.88091L92.6778 -1.02491C89.7127 -0.369825 87.1051 0.715556 84.9009 2.26932L87.2056 5.53868ZM93.5407 2.88091C96.1125 2.31271 99.2248 2.016 102.901 2.016V-1.984C99.0258 -1.984 95.61 -1.67272 92.6778 -1.02491L93.5407 2.88091ZM167.499 0.303999L168.857 1.77272L172.61 -1.696H167.499V0.303999ZM149.115 17.296L147.758 15.8273L146.155 17.3086L147.77 18.7762L149.115 17.296ZM167.499 34V36H172.674L168.844 32.5198L167.499 34ZM152.331 34L150.937 35.434L151.519 36H152.331V34ZM141.963 23.92L143.357 22.486L142.001 21.1675L140.609 22.4481L141.963 23.92ZM138.363 27.232L137.009 25.7601L136.363 26.3544V27.232H138.363ZM138.363 34V36H140.363V34H138.363ZM127.179 34H125.179V36H127.179V34ZM127.179 0.303999V-1.696H125.179V0.303999H127.179ZM138.363 0.303999H140.363V-1.696H138.363V0.303999ZM138.363 13.648H136.363V18.3246L139.745 15.0941L138.363 13.648ZM152.331 0.303999V-1.696H151.529L150.95 -1.14215L152.331 0.303999ZM166.142 -1.16473L147.758 15.8273L150.473 18.7647L168.857 1.77272L166.142 -1.16473ZM147.77 18.7762L166.154 35.4802L168.844 32.5198L150.46 15.8158L147.77 18.7762ZM167.499 32H152.331V36H167.499V32ZM153.725 32.566L143.357 22.486L140.569 25.354L150.937 35.434L153.725 32.566ZM140.609 22.4481L137.009 25.7601L139.717 28.7039L143.317 25.3919L140.609 22.4481ZM136.363 27.232V34H140.363V27.232H136.363ZM138.363 32H127.179V36H138.363V32ZM129.179 34V0.303999H125.179V34H129.179ZM127.179 2.304H138.363V-1.696H127.179V2.304ZM136.363 0.303999V13.648H140.363V0.303999H136.363ZM139.745 15.0941L153.713 1.75015L150.95 -1.14215L136.982 12.2019L139.745 15.0941ZM152.331 2.304H167.499V-1.696H152.331V2.304ZM196.58 0.303999V-1.696H195.578L194.978 -0.893882L196.58 0.303999ZM209.78 0.303999L211.429 1.4348L213.575 -1.696H209.78V0.303999ZM193.46 24.112L191.81 22.9812L191.46 23.4923V24.112H193.46ZM193.46 34V36H195.46V34H193.46ZM182.324 34H180.324V36H182.324V34ZM182.324 24.112H184.324V23.4938L183.975 22.9835L182.324 24.112ZM166.052 0.303999V-1.696H162.262L164.4 1.43253L166.052 0.303999ZM179.252 0.303999L180.856 -0.889626L180.257 -1.696H179.252V0.303999ZM187.892 11.92L186.287 13.1136L187.887 15.2652L189.493 13.1179L187.892 11.92ZM196.58 2.304H209.78V-1.696H196.58V2.304ZM208.13 -0.826799L191.81 22.9812L195.109 25.2428L211.429 1.4348L208.13 -0.826799ZM191.46 24.112V34H195.46V24.112H191.46ZM193.46 32H182.324V36H193.46V32ZM184.324 34V24.112H180.324V34H184.324ZM183.975 22.9835L167.703 -0.824533L164.4 1.43253L180.672 25.2405L183.975 22.9835ZM166.052 2.304H179.252V-1.696H166.052V2.304ZM177.647 1.49762L186.287 13.1136L189.496 10.7264L180.856 -0.889626L177.647 1.49762ZM189.493 13.1179L198.181 1.50188L194.978 -0.893882L186.29 10.7221L189.493 13.1179ZM232.312 34H230.312V36H232.312V34ZM232.312 0.399998V-1.6H230.312V0.399998H232.312ZM261.16 0.783998L260.862 2.7616L260.88 2.76436L260.898 2.76678L261.16 0.783998ZM266.296 2.224L265.513 4.06404L265.527 4.07023L265.542 4.07618L266.296 2.224ZM270.616 5.104L269.164 6.47949L269.174 6.48916L269.183 6.49871L270.616 5.104ZM273.4 9.952L271.509 10.6022L271.513 10.6153L271.518 10.6284L273.4 9.952ZM270.328 28.768L271.724 30.2005L271.733 30.1914L271.742 30.1822L270.328 28.768ZM265.912 31.84L266.765 33.6489L266.779 33.6423L266.793 33.6356L265.912 31.84ZM260.776 33.52L260.412 31.5534L260.405 31.5547L260.776 33.52ZM259.24 23.824L260.188 25.5849L260.206 25.5756L260.223 25.566L259.24 23.824ZM261.976 21.088L260.198 20.1733L260.198 20.1733L261.976 21.088ZM260.872 11.728L259.392 13.0733L259.408 13.0909L259.425 13.1082L260.872 11.728ZM243.496 9.616V7.616H241.496V9.616H243.496ZM243.496 24.832H241.496V26.832H243.496V24.832ZM255.496 32H232.312V36H255.496V32ZM234.312 34V0.399998H230.312V34H234.312ZM232.312 2.4H255.352V-1.6H232.312V2.4ZM255.352 2.4C257.454 2.4 259.287 2.52385 260.862 2.7616L261.459 -1.1936C259.642 -1.46785 257.603 -1.6 255.352 -1.6V2.4ZM260.898 2.76678C262.398 2.96486 263.935 3.39216 265.513 4.06404L267.08 0.383949C265.201 -0.41617 263.314 -0.948869 261.422 -1.19878L260.898 2.76678ZM265.542 4.07618C267.036 4.68505 268.229 5.49266 269.164 6.47949L272.068 3.72851C270.699 2.28334 269.012 1.17095 267.051 0.371812L265.542 4.07618ZM269.183 6.49871C270.076 7.4163 270.872 8.75 271.509 10.6022L275.292 9.30184C274.52 7.058 273.461 5.15969 272.05 3.70929L269.183 6.49871ZM271.518 10.6284C272.158 12.4084 272.504 14.5853 272.504 17.2H276.504C276.504 14.2467 276.115 11.5916 275.282 9.2756L271.518 10.6284ZM272.504 17.2C272.504 19.4911 272.152 21.4804 271.487 23.198L275.217 24.642C276.089 22.3915 276.504 19.9009 276.504 17.2H272.504ZM271.487 23.198C270.799 24.9747 269.929 26.3387 268.914 27.3538L271.742 30.1822C273.223 28.7013 274.369 26.8333 275.217 24.642L271.487 23.198ZM268.933 27.3355C267.848 28.3922 266.554 29.2977 265.031 30.0444L266.793 33.6356C268.663 32.7183 270.312 31.5758 271.724 30.2005L268.933 27.3355ZM265.059 30.0311C263.508 30.7627 261.96 31.2668 260.412 31.5534L261.14 35.4866C263.048 35.1332 264.924 34.5173 266.765 33.6489L265.059 30.0311ZM260.405 31.5547C258.838 31.8503 257.203 32 255.496 32V36C257.438 36 259.322 35.8297 261.147 35.4853L260.405 31.5547ZM254.728 26.832C256.74 26.832 258.587 26.4474 260.188 25.5849L258.292 22.0631C257.398 22.5446 256.236 22.832 254.728 22.832V26.832ZM260.223 25.566C261.763 24.6971 262.976 23.5165 263.755 22.0027L260.198 20.1733C259.824 20.8995 259.213 21.5428 258.258 22.082L260.223 25.566ZM263.755 22.0027C264.496 20.5616 264.84 18.9603 264.84 17.248H260.84C260.84 18.4157 260.609 19.3744 260.198 20.1733L263.755 22.0027ZM264.84 17.248C264.84 14.5454 264.059 12.1717 262.32 10.3478L259.425 13.1082C260.31 14.0363 260.84 15.3426 260.84 17.248H264.84ZM262.352 10.3827C260.542 8.39145 257.835 7.616 254.728 7.616V11.616C257.253 11.616 258.643 12.2485 259.392 13.0733L262.352 10.3827ZM254.728 7.616H243.496V11.616H254.728V7.616ZM241.496 9.616V24.832H245.496V9.616H241.496ZM243.496 26.832H254.728V22.832H243.496V26.832ZM275.685 0.303999V-1.696H273.685V0.303999H275.685ZM304.677 0.688L304.308 2.65374L304.343 2.66019L304.377 2.66543L304.677 0.688ZM307.509 1.408L306.791 3.27469L306.833 3.291L306.876 3.30537L307.509 1.408ZM310.245 2.8L309.135 4.4641L309.155 4.4771L309.175 4.48964L310.245 2.8ZM312.645 5.008L311.038 6.19845L311.063 6.2321L311.089 6.26467L312.645 5.008ZM314.277 8.224L312.37 8.82849L312.377 8.84946L312.384 8.87029L314.277 8.224ZM308.757 24.064L307.792 22.3119L305.847 23.3828L307.115 25.2061L308.757 24.064ZM315.669 34L315.661 36L319.506 36.0143L317.311 32.8579L315.669 34ZM302.757 33.952L301.139 35.1283L301.736 35.9482L302.749 35.952L302.757 33.952ZM296.997 26.032L298.614 24.8557L298.015 24.032H296.997V26.032ZM286.869 26.032V24.032H284.869V26.032H286.869ZM286.869 34V36H288.869V34H286.869ZM275.685 34H273.685V36H275.685V34ZM286.869 10.144V8.144H284.869V10.144H286.869ZM286.869 16.192H284.869V18.192H286.869V16.192ZM275.685 2.304H300.453V-1.696H275.685V2.304ZM300.453 2.304C301.06 2.304 301.631 2.31918 302.166 2.34892L302.388 -1.64492C301.771 -1.67918 301.126 -1.696 300.453 -1.696V2.304ZM302.166 2.34892C302.613 2.37374 303.313 2.46719 304.308 2.65374L305.045 -1.27774C303.992 -1.47519 303.093 -1.60575 302.388 -1.64492L302.166 2.34892ZM304.377 2.66543C305.317 2.80788 306.117 3.01565 306.791 3.27469L308.227 -0.458693C307.236 -0.839648 306.148 -1.11188 304.976 -1.28943L304.377 2.66543ZM306.876 3.30537C307.534 3.52453 308.286 3.8978 309.135 4.4641L311.354 1.1359C310.284 0.422202 309.212 -0.132531 308.141 -0.489367L306.876 3.30537ZM309.175 4.48964C309.938 4.97334 310.553 5.54359 311.038 6.19845L314.252 3.81754C313.457 2.7444 312.471 1.84266 311.315 1.11036L309.175 4.48964ZM311.089 6.26467C311.567 6.85624 312.009 7.68886 312.37 8.82849L316.183 7.61951C315.713 6.13514 315.067 4.82376 314.201 3.75133L311.089 6.26467ZM312.384 8.87029C312.748 9.93733 312.949 11.2012 312.949 12.688H316.949C316.949 10.8468 316.701 9.13467 316.169 7.57771L312.384 8.87029ZM312.949 12.688C312.949 17.3836 311.189 20.4427 307.792 22.3119L309.721 25.8161C314.581 23.1413 316.949 18.6164 316.949 12.688H312.949ZM307.115 25.2061L314.027 35.1421L317.311 32.8579L310.399 22.9219L307.115 25.2061ZM315.676 32L302.764 31.952L302.749 35.952L315.661 36L315.676 32ZM304.374 32.7757L298.614 24.8557L295.379 27.2083L301.139 35.1283L304.374 32.7757ZM296.997 24.032H286.869V28.032H296.997V24.032ZM284.869 26.032V34H288.869V26.032H284.869ZM286.869 32H275.685V36H286.869V32ZM277.685 34V0.303999H273.685V34H277.685ZM299.397 18.192C300.985 18.192 302.541 17.9008 303.738 16.9934C305.038 16.0069 305.573 14.5595 305.573 13.024H301.573C301.573 13.6005 301.412 13.7371 301.32 13.8066C301.124 13.9552 300.593 14.192 299.397 14.192V18.192ZM305.573 13.024C305.573 11.4719 304.935 10.0864 303.582 9.19427C302.374 8.39823 300.817 8.144 299.205 8.144V12.144C300.504 12.144 301.131 12.3698 301.38 12.5337C301.477 12.5979 301.503 12.6423 301.515 12.6664C301.531 12.6982 301.573 12.7984 301.573 13.024H305.573ZM299.205 8.144H286.869V12.144H299.205V8.144ZM284.869 10.144V16.192H288.869V10.144H284.869ZM286.869 18.192H299.397V14.192H286.869V18.192ZM345.744 0.399998L347.568 -0.420732L347.037 -1.6H345.744V0.399998ZM360.864 34V36H363.957L362.688 33.1793L360.864 34ZM347.904 34L346.08 34.8194L346.61 36H347.904V34ZM345.36 28.336L347.185 27.5166L346.654 26.336H345.36V28.336ZM328.704 28.336V26.336H327.41L326.88 27.5166L328.704 28.336ZM326.16 34V36H327.454L327.985 34.8194L326.16 34ZM313.296 34L311.471 33.1814L310.207 36H313.296V34ZM328.368 0.399998V-1.6H327.073L326.543 -0.418563L328.368 0.399998ZM332.688 18.64L330.892 17.7612L329.483 20.64H332.688V18.64ZM341.376 18.64V20.64H344.596L343.169 17.7534L341.376 18.64ZM337.008 9.808L338.801 8.92138L336.998 5.27646L335.212 8.92923L337.008 9.808ZM343.92 1.22073L359.04 34.8207L362.688 33.1793L347.568 -0.420732L343.92 1.22073ZM360.864 32H347.904V36H360.864V32ZM349.729 33.1806L347.185 27.5166L343.536 29.1554L346.08 34.8194L349.729 33.1806ZM345.36 26.336H328.704V30.336H345.36V26.336ZM326.88 27.5166L324.336 33.1806L327.985 34.8194L330.529 29.1554L326.88 27.5166ZM326.16 32H313.296V36H326.16V32ZM315.121 34.8186L330.193 1.21856L326.543 -0.418563L311.471 33.1814L315.121 34.8186ZM328.368 2.4H345.744V-1.6H328.368V2.4ZM332.688 20.64H341.376V16.64H332.688V20.64ZM343.169 17.7534L338.801 8.92138L335.215 10.6946L339.583 19.5266L343.169 17.7534ZM335.212 8.92923L330.892 17.7612L334.485 19.5188L338.805 10.6868L335.212 8.92923ZM416.705 0.303999L418.549 1.07941L419.716 -1.696H416.705V0.303999ZM402.593 33.856L400.75 33.0806L400.458 33.7744L400.696 34.4885L402.593 33.856ZM402.641 34V36H405.416L404.539 33.3675L402.641 34ZM391.841 34L389.944 33.3676L389.067 36H391.841V34ZM391.889 33.856L393.787 34.4884L394.033 33.7498L393.715 33.0392L391.889 33.856ZM383.921 16.048L385.747 15.2312L383.903 11.1099L382.09 15.2448L383.921 16.048ZM376.049 34V36H377.356L377.881 34.8032L376.049 34ZM365.249 34L363.408 34.7815L363.926 36H365.249V34ZM350.945 0.303999V-1.696H347.924L349.104 1.0855L350.945 0.303999ZM362.753 0.303999L364.602 -0.459608L364.091 -1.696H362.753V0.303999ZM370.625 19.36L368.777 20.1236L370.625 24.5983L372.474 20.1236L370.625 19.36ZM378.497 0.303999V-1.696H377.16L376.649 -0.459608L378.497 0.303999ZM389.201 0.303999L391.044 -0.47421L390.528 -1.696H389.201V0.303999ZM397.169 19.168L395.327 19.9462L397.192 24.3613L399.018 19.9302L397.169 19.168ZM404.945 0.303999V-1.696H403.607L403.096 -0.458211L404.945 0.303999ZM414.862 -0.471408L400.75 33.0806L404.437 34.6314L418.549 1.07941L414.862 -0.471408ZM400.696 34.4885L400.744 34.6325L404.539 33.3675L404.491 33.2235L400.696 34.4885ZM402.641 32H391.841V36H402.641V32ZM393.739 34.6324L393.787 34.4884L389.992 33.2236L389.944 33.3676L393.739 34.6324ZM393.715 33.0392L385.747 15.2312L382.096 16.8648L390.064 34.6728L393.715 33.0392ZM382.09 15.2448L374.218 33.1968L377.881 34.8032L385.753 16.8512L382.09 15.2448ZM376.049 32H365.249V36H376.049V32ZM367.09 33.2185L352.786 -0.477505L349.104 1.0855L363.408 34.7815L367.09 33.2185ZM350.945 2.304H362.753V-1.696H350.945V2.304ZM360.905 1.06761L368.777 20.1236L372.474 18.5964L364.602 -0.459608L360.905 1.06761ZM372.474 20.1236L380.346 1.06761L376.649 -0.459608L368.777 18.5964L372.474 20.1236ZM378.497 2.304H389.201V-1.696H378.497V2.304ZM387.359 1.08221L395.327 19.9462L399.012 18.3898L391.044 -0.47421L387.359 1.08221ZM399.018 19.9302L406.794 1.06621L403.096 -0.458211L395.32 18.4058L399.018 19.9302ZM404.945 2.304H416.705V-1.696H404.945V2.304Z" fill="#50E2E7"/>
</svg>
